<svg id="Group_3920" data-name="Group 3920" xmlns="http://www.w3.org/2000/svg" width="62.441" height="56.966" viewBox="0 0 62.441 56.966">
  <path id="Path_563" data-name="Path 563" d="M826.219,365h-54A4.227,4.227,0,0,0,768,369.222v35.94a4.227,4.227,0,0,0,4.222,4.222h7.242a.915.915,0,1,0,0-1.829h-7.242a2.4,2.4,0,0,1-2.393-2.393v-2.837a4.2,4.2,0,0,0,2.393.746h54a4.2,4.2,0,0,0,2.393-.746v2.837a2.4,2.4,0,0,1-2.393,2.393h-43.1a.915.915,0,1,0,0,1.829h11.412L791.9,415.5h-1.655a3.952,3.952,0,0,0-3.948,3.947v.594a1.924,1.924,0,0,0,1.922,1.921h22.007a1.924,1.924,0,0,0,1.922-1.921v-.594A3.952,3.952,0,0,0,808.2,415.5h-1.656l-2.636-6.119h22.312a4.227,4.227,0,0,0,4.222-4.222v-35.94A4.227,4.227,0,0,0,826.219,365Zm-15.9,54.451v.594a.093.093,0,0,1-.093.092H788.217a.093.093,0,0,1-.093-.092v-.594a2.12,2.12,0,0,1,2.118-2.118H808.2a2.12,2.12,0,0,1,2.118,2.118Zm-5.766-3.947H793.89l2.636-6.119h5.389Zm21.668-14.263h-54a2.4,2.4,0,0,1-2.393-2.393V369.222a2.4,2.4,0,0,1,2.393-2.393h54a2.4,2.4,0,0,1,2.393,2.393v29.626a2.4,2.4,0,0,1-2.393,2.393Zm0,0" transform="translate(-768 -365)" fill="#4e8848"/>
  <path id="Path_564" data-name="Path 564" d="M865.171,401.769h-4.006a1.53,1.53,0,0,0-1.529,1.528v1.089h-8.725V403.3a1.53,1.53,0,0,0-1.529-1.528h-4.005a1.53,1.53,0,0,0-1.529,1.528v1.088H830.436a2.978,2.978,0,1,0,0,1.829h9.3a16.785,16.785,0,0,0-8.8,11.456h-1.462a1.531,1.531,0,0,0-1.529,1.529v4.006a1.531,1.531,0,0,0,1.529,1.529h4.006a1.531,1.531,0,0,0,1.529-1.529V419.2a1.531,1.531,0,0,0-1.529-1.529h-.668a14.954,14.954,0,0,1,11.036-11.036v.668a1.53,1.53,0,0,0,1.529,1.529h4.005a1.53,1.53,0,0,0,1.528-1.529v-1.087h8.726V407.3a1.531,1.531,0,0,0,1.529,1.529h4.006A1.531,1.531,0,0,0,866.7,407.3V403.3a1.53,1.53,0,0,0-1.529-1.528ZM833.18,422.9h-3.4v-3.4h3.4ZM827.6,406.449a1.149,1.149,0,1,1,1.149-1.148,1.15,1.15,0,0,1-1.149,1.148Zm21.479.553h-3.4v-3.4h3.4Zm15.788,0h-3.4v-1.691s0-.007,0-.01,0-.008,0-.011V403.6h3.4Zm0,0" transform="translate(-815.417 -395.79)" fill="#4e8848"/>
  <path id="Path_565" data-name="Path 565" d="M992.325,465.874l-9.049-6.609a1.985,1.985,0,0,0-3.159,1.614v11.207A1.981,1.981,0,0,0,981.573,474a2.051,2.051,0,0,0,.559.078,1.981,1.981,0,0,0,1.69-.946l2.43-3.917a.165.165,0,0,1,.153-.078l4.6.337a2,2,0,0,0,1.323-3.6Zm-1.021,1.669a.148.148,0,0,1-.168.109l-4.6-.337a1.991,1.991,0,0,0-1.842.938l-2.429,3.917a.155.155,0,0,1-.2.072.148.148,0,0,1-.125-.157V460.877a.162.162,0,0,1,.158-.168.153.153,0,0,1,.092.034l9.049,6.609a.148.148,0,0,1,.058.192Zm0,0" transform="translate(-945.625 -443.614)" fill="#4e8848"/>
</svg>
