<svg id="Group_3921" data-name="Group 3921" xmlns="http://www.w3.org/2000/svg" xmlns:xlink="http://www.w3.org/1999/xlink" width="61.707" height="56.799" viewBox="0 0 61.707 56.799">
  <defs>
    <clipPath id="clip-path">
      <rect id="SVGID" width="61.613" height="56.799" fill="#4e8848"/>
    </clipPath>
  </defs>
  <path id="Path_566" data-name="Path 566" d="M961.352,671.44a2.545,2.545,0,1,0-2.545,2.545,2.547,2.547,0,0,0,2.545-2.545Zm-2.545.737a.737.737,0,1,1,.737-.737.738.738,0,0,1-.737.737Zm0,0" transform="translate(-926.009 -619.739)" fill="#4e8848"/>
  <path id="Path_567" data-name="Path 567" d="M936.5,436.582a6.814,6.814,0,0,0-3.763,12.5c.013.009.026.02.039.029a6.818,6.818,0,0,0,3.724,1.108,6.993,6.993,0,0,0,3.764-1.137,6.814,6.814,0,0,0-3.764-12.5Zm1.757,11.506a5,5,0,0,1-3.514,0l-.05-.019a2.876,2.876,0,0,1,3.614,0l-.05.019Zm1.635-1.008a4.675,4.675,0,0,0-6.783,0,5.009,5.009,0,1,1,6.783,0Zm0,0" transform="translate(-903.702 -424.758)" fill="#4e8848"/>
  <path id="Path_568" data-name="Path 568" d="M957.24,455.23a2.845,2.845,0,1,0,2.845,2.846,2.848,2.848,0,0,0-2.845-2.846Zm0,3.883a1.037,1.037,0,1,1,1.038-1.037,1.038,1.038,0,0,1-1.038,1.037Zm0,0" transform="translate(-924.442 -440.409)" fill="#4e8848"/>
  <path id="Path_569" data-name="Path 569" d="M958.224,390.128h2.942a.9.9,0,0,0,0-1.808h-2.942a.9.9,0,1,0,0,1.808Zm0,0" transform="translate(-926.897 -384.251)" fill="#4e8848"/>
  <path id="Path_570" data-name="Path 570" d="M944.581,537.668h-9.467a1.444,1.444,0,0,0-1.442,1.442V542a1.443,1.443,0,0,0,1.442,1.442h9.467A1.443,1.443,0,0,0,946.022,542V539.11a1.444,1.444,0,0,0-1.442-1.442Zm-.366,3.963H935.48v-2.156h8.735Zm0,0" transform="translate(-907.049 -509.599)" fill="#4e8848"/>
  <g id="Group_241" data-name="Group 241" transform="translate(0 0)">
    <g id="Group_240" data-name="Group 240" transform="translate(0 0)" clip-path="url(#clip-path)">
      <path id="Path_571" data-name="Path 571" d="M913.155,589.836h-9.467a1.443,1.443,0,0,0-1.442,1.442.9.9,0,0,0,1.731.366h8.812V593.8H897.134a.9.9,0,0,0,0,1.808h16.021a1.443,1.443,0,0,0,1.442-1.442v-2.887a1.443,1.443,0,0,0-1.442-1.442Zm0,0" transform="translate(-875.624 -553.384)" fill="#4e8848"/>
      <path id="Path_572" data-name="Path 572" d="M828.8,382.163H818.325V367.5a3.953,3.953,0,0,0-3.948-3.948H787.219a3.953,3.953,0,0,0-3.948,3.948v13.028l-2.617-4.532a2.965,2.965,0,0,0-2.842-4.908,5.21,5.21,0,0,0-9.012,5.2,2.968,2.968,0,0,0,2.169,4.992,2.905,2.905,0,0,0,.659-.077l9.5,16.449h0l.007.011c0,.006.008.011.011.017.138.226.077.147,2.127,1.565V416.31a3.953,3.953,0,0,0,3.948,3.948H798.99a.9.9,0,0,0,0-1.808H787.219a2.143,2.143,0,0,1-2.141-2.141V411.87h31.439v4.441a2.143,2.143,0,0,1-2.141,2.141h-11.77a.9.9,0,0,0,0,1.808h11.77a3.953,3.953,0,0,0,3.948-3.948v-12.72H828.8a.9.9,0,1,0,0-1.808H818.325V383.971H828.8a.9.9,0,1,0,0-1.808Zm-58.646-9.118a3.4,3.4,0,0,1,6.008-1.16l-5.85,3.377a3.376,3.376,0,0,1-.158-2.217Zm1.414,6.252-.03.017a1.157,1.157,0,0,1-1.157-2l7.487-4.323h0l.028-.016a1.157,1.157,0,1,1,1.157,2Zm10.069,15.632-8.383-14.519,2.164-1.25,1.59,2.754a.9.9,0,0,0,1.566-.9l-1.589-2.754,2.164-1.249,4.227,7.32,0,0,4.153,7.194a2.481,2.481,0,0,0-2.162,1.252l-4.949-8.572a.9.9,0,0,0-1.566.9l4.947,8.568a2.5,2.5,0,0,0-2.163,1.251Zm3.04,3.092,0,0-1.8-1.241a1.7,1.7,0,0,1,.579-1.2c.337-.2.977-.09,1.8.3l.023.009a.9.9,0,0,0,1.26-.734c0-.006,0-.011,0-.016.077-.907.306-1.513.643-1.709a1.7,1.7,0,0,1,1.329.1l.316,3.914-2.721,1.571Zm4.313,1.412.1,1.262a.188.188,0,0,1-.294.17l-1.042-.719Zm27.523-17.269H810a.9.9,0,1,0,0,1.808h6.517v17.812H810a.9.9,0,1,0,0,1.808h6.517v6.471H785.078v-9.57l2.7,1.861a2,2,0,0,0,3.124-1.8c-.65-8.043-.609-7.816-.7-8.019-.008-.018-.038-.075-.039-.078l-5.079-8.8V367.5a2.143,2.143,0,0,1,2.141-2.141h27.158a2.142,2.142,0,0,1,2.141,2.141Zm0,0" transform="translate(-768 -363.459)" fill="#4e8848"/>
    </g>
  </g>
  <path id="Path_573" data-name="Path 573" d="M1111.006,459.688h-5.868a.9.9,0,0,0,0,1.808h5.868a.9.9,0,0,0,0-1.808Zm0,0" transform="translate(-1050.202 -444.15)" fill="#4e8848"/>
  <path id="Path_574" data-name="Path 574" d="M1105.138,441.8h5.868a.9.9,0,0,0,0-1.808h-5.868a.9.9,0,0,0,0,1.808Zm0,0" transform="translate(-1050.202 -427.616)" fill="#4e8848"/>
  <path id="Path_575" data-name="Path 575" d="M1111.006,581.781h-5.868a.9.9,0,0,0,0,1.808h5.868a.9.9,0,0,0,0-1.808Zm0,0" transform="translate(-1050.202 -546.623)" fill="#4e8848"/>
  <path id="Path_576" data-name="Path 576" d="M1111.006,562.078h-5.868a.9.9,0,0,0,0,1.808h5.868a.9.9,0,0,0,0-1.808Zm0,0" transform="translate(-1050.202 -530.087)" fill="#4e8848"/>
</svg>
