<svg xmlns="http://www.w3.org/2000/svg" width="74.383" height="57.312" viewBox="0 0 74.383 57.312">
  <path id="Path_10914" data-name="Path 10914" d="M74.383,72.791a6.962,6.962,0,0,0-11.69-5.11,3.9,3.9,0,0,0-5.32,5.31l-10.9,10.9V67.587H53.45a1.09,1.09,0,0,0,0-2.179H46.472V59.841a1.09,1.09,0,1,0-2.179,0v5.567H18.453a1.09,1.09,0,0,0,0,2.179h4.755L10.285,75.041l-.038.024V67.587h3.848a1.09,1.09,0,0,0,0-2.179H10.247V59.841a1.09,1.09,0,1,0-2.179,0v5.567H1.09a1.09,1.09,0,0,0,0,2.179H8.068v39.641H1.09a1.09,1.09,0,0,0,0,2.179H8.068v5.567a1.09,1.09,0,0,0,2.179,0v-5.567H37.315a1.09,1.09,0,1,0,0-2.179H31.332l4.6-2.651a2.549,2.549,0,0,0,1.661.619,2.6,2.6,0,0,0,.875-.153l5.83-2.077v4.262h-2.62a1.09,1.09,0,0,0,0,2.179h2.62v5.567a1.09,1.09,0,1,0,2.179,0v-5.567H53.45a1.09,1.09,0,0,0,0-2.179H46.472v-5.039l1.938-.691h0a1.1,1.1,0,0,0,.1-.043l.024-.012q.037-.019.072-.04l.031-.019c.022-.015.043-.03.064-.046l.025-.019c.028-.023.055-.047.081-.072l0,0,18.4-18.405a3.9,3.9,0,0,0,5.31-5.32,6.908,6.908,0,0,0,1.853-4.726ZM70.8,69.408a4.781,4.781,0,0,1,.278,6.461L64.342,69.13a4.791,4.791,0,0,1,6.46.277ZM41.843,101.525l-3.157-3.157,1.858-5.216a2.5,2.5,0,0,1,1.99.372c.416.416.514,1.317.284,2.6,0,.006,0,.012,0,.018-.005.032-.009.064-.011.1,0,.013,0,.026,0,.039,0,.028,0,.057,0,.085a1.089,1.089,0,0,0,1.279,1.026c1.288-.23,2.188-.131,2.6.285a2.5,2.5,0,0,1,.372,1.99Zm6.385-5.389a3.454,3.454,0,0,0-1.7-.907l9.718-9.718A1.09,1.09,0,0,0,54.7,83.969l-9.717,9.717a3.3,3.3,0,0,0-2.613-2.61L58.813,74.633l2.612,2.612-3.167,3.167A1.09,1.09,0,0,0,59.8,81.953l3.167-3.167L65.578,81.4,49.134,97.841a3.452,3.452,0,0,0-.906-1.706ZM44.293,67.587v7.486l-.03-.019L31.341,67.587ZM10.251,78.869a2.255,2.255,0,0,1,1.124-1.941L26.157,68.4a2.246,2.246,0,0,1,2.24,0L43.172,76.94a2.25,2.25,0,0,1,1.121,1.942v7.189l-4.8,4.8V82.91a4.432,4.432,0,0,0-2.207-3.829l-7.8-4.505a4.432,4.432,0,0,0-4.42,0l-7.8,4.5A4.434,4.434,0,0,0,15.052,82.9v9a4.432,4.432,0,0,0,2.207,3.829l7.8,4.505a4.432,4.432,0,0,0,4.42,0l7.8-4.5.042-.026-2.149,6.032a2.606,2.606,0,0,0-.151.838l-6.633,3.827a2.249,2.249,0,0,1-2.242,0L11.367,97.874a2.245,2.245,0,0,1-1.116-1.942Zm27.058,4.04v9a2.248,2.248,0,0,1-1.123,1.94l-7.8,4.5a2.247,2.247,0,0,1-2.241,0l-7.8-4.505a2.247,2.247,0,0,1-1.118-1.942v-9a2.248,2.248,0,0,1,1.123-1.94l7.8-4.5a2.247,2.247,0,0,1,2.241,0l7.8,4.505a2.248,2.248,0,0,1,1.118,1.942ZM10.247,107.228V99.743l.03.019L23.2,107.228H10.247Zm27.485-4.238a.4.4,0,0,1-.511-.511l.655-1.839,1.694,1.694ZM70.356,80.66a1.722,1.722,0,0,1-2.433,0l-.033-.033-8.306-8.306-.033-.033a1.721,1.721,0,0,1,2.433-2.433l8.373,8.373a1.723,1.723,0,0,1,0,2.433Z" transform="translate(0 -58.751)" fill="#4e8848"/>
</svg>
