<svg xmlns="http://www.w3.org/2000/svg" width="1920.921" height="539.033" viewBox="0 0 1920.921 539.033">
  <g id="Group_3270" data-name="Group 3270" transform="translate(0.422 1.288)" opacity="0.3">
    <path id="Path_10511" data-name="Path 10511" d="M-4470.96,509.378c-50.862-24.744-179.753,5.345-314.944-17.88-121.4-20.858-306.2-93.33-446.92-100.323-199.958-9.93-474.93,104.465-635.877,118.2-253.356,21.628-452.069-54.714-518.907-32.778" transform="translate(6387.608 -210.014)" fill="none" stroke="#e0e0e0" stroke-miterlimit="10" stroke-width="0.416"/>
    <path id="Path_10512" data-name="Path 10512" d="M-4469.013,487.9c-55.305-25.9-179.7-4.808-313.352-27.937-26.488-4.585-55.794-11.1-86.932-18.656-109.656-26.6-246.772-64.191-361.463-66.171-115.81-2.442-253.827,30.5-380.182,60.177-95.088,22.455-185.416,42.042-257.3,45.97-243.841,13.3-440.171-56.975-519.034-35.98" transform="translate(6387.646 -211.687)" fill="none" stroke="#e0e0e0" stroke-miterlimit="10" stroke-width="0.702"/>
    <path id="Path_10513" data-name="Path 10513" d="M-4469.915,466.456c-59.651-27.049-179.381-14.959-311.305-37.987-26.655-4.662-55.943-10.766-87.043-17.7-106.463-23.711-243.193-52.783-362.168-51.639-117.645,1.126-255.4,32.052-380.4,58-93.455,19.613-183.4,34.29-257.722,36.091-233.839,5.662-427.646-59.247-518.388-39.173" transform="translate(6387.681 -213.398)" fill="none" stroke="#e0e0e0" stroke-miterlimit="10" stroke-width="0.987"/>
    <path id="Path_10514" data-name="Path 10514" d="M-4469.084,445.083c-64.04-28.211-179.223-25.12-309.534-48.036-26.846-4.739-56.152-10.459-87.25-16.743-103.338-20.893-239.817-41.666-363.174-37.115-119.59,4.413-257.227,33.606-380.978,55.822-91.9,16.77-181.5,26.682-258.368,26.222-223.994-1.358-415.525-61.509-518.212-42.367" transform="translate(6387.717 -215.176)" fill="none" stroke="#e0e0e0" stroke-miterlimit="10" stroke-width="1.28"/>
    <path id="Path_10515" data-name="Path 10515" d="M-4469.988,423.832c-68.365-29.364-178.914-35.271-307.5-58.094-27.009-4.808-56.289-10.153-87.359-15.779-100.109-18.127-236.247-30.61-363.872-22.584-121.409,7.634-258.8,35.153-381.2,53.638-90.263,13.926-179.446,19.244-258.78,16.341-213.948-7.812-403.06-63.772-517.567-45.551" transform="translate(6387.753 -217.075)" fill="none" stroke="#e0e0e0" stroke-miterlimit="10" stroke-width="1.565"/>
    <path id="Path_10516" data-name="Path 10516" d="M-4469.156,402.8c-72.749-30.524-178.758-45.433-305.735-68.152-27.2-4.875-56.488-9.87-87.564-14.814-96.971-15.437-232.892-19.612-364.875-8.052-123.349,10.793-260.622,36.7-381.771,51.452-88.711,11.091-177.559,12-259.433,6.48-204.125-13.755-390.988-66.051-517.392-48.753" transform="translate(6387.788 -219.195)" fill="none" stroke="#e0e0e0" stroke-miterlimit="10" stroke-width="1.85"/>
    <path id="Path_10517" data-name="Path 10517" d="M-4469.193,382.1c-77.087-31.677-178.521-55.593-303.845-78.211q-41.051-7.414-87.712-13.857c-93.784-12.807-229.452-8.666-365.736,6.48-125.229,13.918-262.3,38.251-382.161,49.283-87.124,8.239-175.623,4.944-259.959-3.407-194.277-19.229-378.749-68.306-516.982-51.947" transform="translate(6387.826 -221.642)" fill="none" stroke="#e0e0e0" stroke-miterlimit="10" stroke-width="2.143"/>
    <path id="Path_10518" data-name="Path 10518" d="M-4468.98,361.7c-81.423-32.838-178.316-65.744-301.989-88.26-27.548-5.02-56.821-9.383-87.889-12.9-90.606-10.246-226.076,2.032-366.627,21.013-127.158,16.812-264.019,39.8-382.609,47.1-85.549,5.4-173.755-1.853-260.518-13.277-184.586-24.3-366.593-70.578-516.643-55.14" transform="translate(6387.862 -224.393)" fill="none" stroke="#e0e0e0" stroke-miterlimit="10" stroke-width="2.428"/>
    <path id="Path_10519" data-name="Path 10519" d="M-4467.9,341.7c-105.293-41.718-220.509-95.355-388.37-110.254-165.436-14.686-501.816,72.891-750.918,80.455s-533.383-103.381-777.729-81.489" transform="translate(6387.898 -227.542)" fill="none" stroke="#e0e0e0" stroke-miterlimit="10" stroke-width="2.714"/>
    <path id="Path_10520" data-name="Path 10520" d="M-4470.094,509.378c-50.885-24.744-179.834,5.345-315.086-17.88-121.459-20.858-306.342-93.33-447.122-100.323-200.049-9.93-475.145,104.465-636.165,118.2-253.47,21.628-452.273-54.714-519.142-32.778" transform="translate(6387.609 -210.014)" fill="none" stroke="#e0e0e0" stroke-miterlimit="10" stroke-width="2.714"/>
    <path id="Path_10521" data-name="Path 10521" d="M-4469.013,530.357c-50.542-21.115-177.9,4.482-314.854-16.444-122.483-18.776-303.554-82.625-446.193-88.184-194.286-8.136-467.558,92.53-637.969,105.37-256.357,19.894-460.732-45.577-519.243-24.333" transform="translate(6387.645 -206.284)" fill="none" stroke="#e0e0e0" stroke-miterlimit="10" stroke-width="2.398"/>
    <path id="Path_10522" data-name="Path 10522" d="M-4469.047,551.338c-50.167-17.494-175.862,3.621-314.436-15.01-123.435-16.693-300.6-71.559-445-76.05-188.442-5.858-459.7,80.593-639.409,92.554-259.1,18.152-468.919-36.457-519.043-15.906" transform="translate(6387.68 -202.55)" fill="none" stroke="#e0e0e0" stroke-miterlimit="10" stroke-width="2.074"/>
    <path id="Path_10523" data-name="Path 10523" d="M-4467.717,572.318c-49.821-13.875-173.95,2.758-314.245-13.576-124.472-14.617-297.856-60.741-444.132-63.908-182.708-3.954-452.193,68.272-641.3,79.73-262.069,15.881-477.436-27.34-519.205-7.471" transform="translate(6387.717 -198.821)" fill="none" stroke="#e0e0e0" stroke-miterlimit="10" stroke-width="1.75"/>
    <path id="Path_10524" data-name="Path 10524" d="M-4470.238,593.306c-49.385-10.255-171.7,1.895-313.423-12.142-125.259-12.534-294.508-49.991-442.371-51.768-176.618-2.125-443.779,56.311-641.894,66.9-264.458,14.131-484.979-18.212-518.34.965" transform="translate(6387.754 -195.094)" fill="none" stroke="#e0e0e0" stroke-miterlimit="10" stroke-width="1.434"/>
    <path id="Path_10525" data-name="Path 10525" d="M-4469.158,614.3c-49.042-6.634-169.771,1.024-313.191-10.706-126.28-10.459-291.72-39.3-441.444-39.635-170.87-.375-436.185,44.8-643.692,54.072-267.313,12.952-493.427-9.085-518.441,9.409" transform="translate(6387.79 -191.372)" fill="none" stroke="#e0e0e0" stroke-miterlimit="10" stroke-width="1.11"/>
    <path id="Path_10526" data-name="Path 10526" d="M-4470.311,635.3c-48.641-3.014-167.645.171-312.595-9.264-127.151-8.375-288.6-28.7-440-27.5-164.921,1.3-428.11,32.854-644.74,41.248-269.89,11.21-501.283.033-517.939,17.835" transform="translate(6387.826 -187.66)" fill="none" stroke="#e0e0e0" stroke-miterlimit="10" stroke-width="0.786"/>
    <path id="Path_10527" data-name="Path 10527" d="M-4470.347,656.336c-48.262.606-165.621-.7-312.179-7.83-128.106-6.3-285.652-18.408-438.821-15.368-159.1,2.638-420.308,20.927-646.163,28.432-272.617,9.468-509.416,9.161-517.748,26.264" transform="translate(6387.862 -183.986)" fill="none" stroke="#e0e0e0" stroke-miterlimit="10" stroke-width="0.463"/>
    <path id="Path_10528" data-name="Path 10528" d="M-4469.267,677.485c-89.657,7.906-416.839-19.245-749.844-9.622S-6384.92,687.723-6384.92,718.17" transform="translate(6387.899 -180.425)" fill="none" stroke="#e0e0e0" stroke-miterlimit="10" stroke-width="0.146"/>
  </g>
</svg>
